<svg width="344" height="344" viewBox="0 0 344 344" fill="none" xmlns="http://www.w3.org/2000/svg">
<path d="M340.203 68.2306C342.333 65.858 342.235 62.2347 339.98 59.9805L284.478 4.47816C282.045 2.04503 278.068 2.15244 275.77 4.71335L143.797 151.769C141.667 154.142 141.765 157.765 144.02 160.02L199.522 215.522C201.955 217.955 205.932 217.848 208.23 215.287L340.203 68.2306ZM110 184C73.7199 184 65.1126 214.229 65.0011 251.823C64.9996 252.317 64.9364 252.827 64.8118 253.304C55.6246 288.487 29.0737 296.154 11.7531 297.825C6.87439 298.295 4.13356 303.785 7.43959 307.403C28.0814 329.996 58.5591 344 88 344C136.62 344 176 303.09 176 252.57C176 214.63 146.52 184 110 184Z" fill="black"/>
</svg>
